<svg xmlns="http://www.w3.org/2000/svg" xmlns:xlink="http://www.w3.org/1999/xlink" viewBox="0 0 532.066 135.848"><defs><style>.af7ea6ec-7b50-41bb-8e76-30c9a87ea65a{isolation:isolate;}.b5c23359-4184-4f80-bd12-76abbd43ae61{fill:#ed2024;}.a3f3aa82-b778-4ef6-be9f-ab674ccee6c7{fill:#49ace1;}.a08288ce-bc19-4f5e-ad18-9201ef03e489,.a16073aa-6f1d-4ad8-84f4-ec283f5183b5,.a761b90a-24e3-4fc3-a7ed-6d2520c797a5,.e637cb17-f3ef-4ad8-814c-751705094ccc,.ea5ad7e6-d55a-47d0-a49e-6c9bb2523ac3,.f2fd9ff3-ab2d-4154-ae22-b7fd62ca7690{opacity:0.45;mix-blend-mode:multiply;}.ea5ad7e6-d55a-47d0-a49e-6c9bb2523ac3{fill:url(#b2010bc9-9e7f-4acd-8fee-0a83c80d393a);}.e447974a-8a09-46ab-95ab-56795ee53b2a{fill:#fcb21c;}.a16073aa-6f1d-4ad8-84f4-ec283f5183b5{fill:url(#ac012366-a743-4882-b693-914b06dcb888);}.a71dadd0-24e1-4b44-81c3-92483cbfb413{fill:#5cba47;}.a08288ce-bc19-4f5e-ad18-9201ef03e489{fill:url(#ba2d5f48-6347-478a-aab4-560dad5d0e53);}.b6924788-cd68-4c9f-9e2a-58ee636292b2{fill:#f37021;}.e637cb17-f3ef-4ad8-814c-751705094ccc{fill:url(#a4f75fd5-0fc9-490a-8a9c-434c12249160);}.a0bec47e-d7a7-414c-b823-6f86d6959d55{fill:#427cc0;}.a761b90a-24e3-4fc3-a7ed-6d2520c797a5{fill:url(#a4dacc63-e769-40a4-8cf7-771ba214333e);}.b4336c29-0e4b-4499-b2dc-9850f0bb9a50{fill:#ee3a78;}.f2fd9ff3-ab2d-4154-ae22-b7fd62ca7690{fill:url(#ba8dc3e2-22cf-489e-bbe8-0d190ae4105a);}</style><linearGradient id="b2010bc9-9e7f-4acd-8fee-0a83c80d393a" x1="32.716" y1="47.907" x2="37.411" y2="45.197" gradientUnits="userSpaceOnUse"><stop offset="0" stop-color="#2a2728"/><stop offset="0.47" stop-color="#272424" stop-opacity="0.42"/><stop offset="0.896" stop-color="#242121" stop-opacity="0"/></linearGradient><linearGradient id="ac012366-a743-4882-b693-914b06dcb888" x1="1853.779" y1="-2937.694" x2="1858.474" y2="-2940.404" gradientTransform="matrix(0.5, -0.866, 0.866, 0.5, 1648.607, 3159.893)" xlink:href="#b2010bc9-9e7f-4acd-8fee-0a83c80d393a"/><linearGradient id="ba2d5f48-6347-478a-aab4-560dad5d0e53" x1="5349.917" y1="-2853.407" x2="5354.612" y2="-2856.118" gradientTransform="translate(5209.458 3312.104) rotate(-120)" xlink:href="#b2010bc9-9e7f-4acd-8fee-0a83c80d393a"/><linearGradient id="a4f75fd5-0fc9-490a-8a9c-434c12249160" x1="7024.992" y1="216.481" x2="7029.686" y2="213.77" gradientTransform="translate(7121.702 304.422) rotate(180)" xlink:href="#b2010bc9-9e7f-4acd-8fee-0a83c80d393a"/><linearGradient id="a4dacc63-e769-40a4-8cf7-771ba214333e" x1="5203.928" y1="3202.081" x2="5208.623" y2="3199.371" gradientTransform="matrix(-0.5, 0.866, -0.866, -0.5, 5473.095, -2855.471)" xlink:href="#b2010bc9-9e7f-4acd-8fee-0a83c80d393a"/><linearGradient id="ba8dc3e2-22cf-489e-bbe8-0d190ae4105a" x1="1707.831" y1="3117.775" x2="1712.487" y2="3115.086" gradientTransform="translate(1912.244 -3007.682) rotate(60)" xlink:href="#b2010bc9-9e7f-4acd-8fee-0a83c80d393a"/></defs><g class="af7ea6ec-7b50-41bb-8e76-30c9a87ea65a"><g id="bd0e82f7-751e-497f-ab05-6118213b74d9" data-name="Layer 2"><g id="f955e184-579c-45ef-89f9-255bd7c08b6d" data-name="Layer 1"><path class="b5c23359-4184-4f80-bd12-76abbd43ae61" d="M82.665,61.139a20.553,20.553,0,0,1-3.47,11.125c-1.426,2.193-3.049,4.238-4.679,6.278-1.736,2.174-3.391,4.406-4.906,6.74a24.467,24.467,0,0,0-2.6,5.448q-.417,1.221-.864,2.432a1.5,1.5,0,0,1-1.623,1.086,1.322,1.322,0,0,1-1.146-.684,4.781,4.781,0,0,1-.429-.916c-.372-1.05-.711-2.112-1.088-3.159a22.473,22.473,0,0,0-2.4-4.607c-1.542-2.369-3.3-4.576-5.036-6.805-1.359-1.75-2.763-3.466-3.976-5.325A20.825,20.825,0,0,1,46.8,59.332a16.905,16.905,0,0,1,1.482-5.879A17.106,17.106,0,0,1,51.562,48.5a17.775,17.775,0,0,1,7.156-4.681,18.061,18.061,0,0,1,5.423-1.032,18.976,18.976,0,0,1,3.832.3,17.566,17.566,0,0,1,8.441,4.054,17.817,17.817,0,0,1,4.916,6.848,17.072,17.072,0,0,1,1.186,4.744C82.6,59.533,82.617,60.338,82.665,61.139ZM64.683,67.572a6.874,6.874,0,1,0-6.89-6.905A6.814,6.814,0,0,0,64.683,67.572Z"/><path class="a3f3aa82-b778-4ef6-be9f-ab674ccee6c7" d="M31.313,44.467l.188-.029c11.629-2.3,21.508-7.666,29.25-16.725A49.979,49.979,0,0,0,71.272,6.971a58.085,58.085,0,0,0-12.954-.007c.034.172.055.307.087.438a48.326,48.326,0,0,0,4.628,11.966.674.674,0,0,1-.031.8q-1.457,2.289-3.126,4.426c-.077.1-.163.188-.288.331A55.826,55.826,0,0,1,51.5,1.362,65.353,65.353,0,0,1,78.1,1.375a55.734,55.734,0,0,1-4.556,16.691A54.34,54.34,0,0,1,55.069,40.671,56.076,56.076,0,0,1,33.7,49.822l-.188.039C32.525,47.236,32.167,46.31,31.313,44.467Z"/><path class="a3f3aa82-b778-4ef6-be9f-ab674ccee6c7" d="M47.45,21.135A32.545,32.545,0,0,1,46.964,26a43.59,43.59,0,0,0-.529,5.259,12.22,12.22,0,0,0,.286,2.857c.09.442.167.887.253,1.33a.841.841,0,0,1-.375.954.811.811,0,0,1-.986-.065,7.167,7.167,0,0,1-.746-.624,15.165,15.165,0,0,0-4.81-3.022c-1.77-.739-3.553-1.447-5.319-2.195a12.254,12.254,0,0,1-3.685-2.29A10.6,10.6,0,0,1,27.6,21.958a9.534,9.534,0,0,1,2.5-8.2,9.416,9.416,0,0,1,7.844-3.166,9.556,9.556,0,0,1,7.59,4.323A10.573,10.573,0,0,1,47.45,21.135Zm-6.292-.7A3.8,3.8,0,0,0,37.312,16.6a3.818,3.818,0,1,0,3.846,3.837Z"/><path class="ea5ad7e6-d55a-47d0-a49e-6c9bb2523ac3" d="M37.761,45.711c.385.858,1.344,2.776,1.262,2.8a53.528,53.528,0,0,1-5.516,1.346c-.982-2.625-1.34-3.551-2.194-5.394.02,0,3.472-.661,5.034-1.2A20.45,20.45,0,0,1,37.761,45.711Z"/><path class="e447974a-8a09-46ab-95ab-56795ee53b2a" d="M27.7,85.121c.006-.019.062-.158.068-.177,3.825-11.219,4.116-22.46.141-33.694a49.983,49.983,0,0,0-12.7-19.482A58.017,58.017,0,0,0,8.723,42.983c.166.057.293.105.423.143A48.322,48.322,0,0,0,21.822,45.1a.673.673,0,0,1,.676.427c.837,1.6,1.6,3.241,2.271,4.92.046.115.081.235.143.415A55.838,55.838,0,0,1,.459,46.091,65.383,65.383,0,0,1,13.775,23.054,55.708,55.708,0,0,1,25.951,35.345,54.334,54.334,0,0,1,36.289,62.65a56.061,56.061,0,0,1-2.762,23.086c-.006.016-.054.165-.06.182C30.7,85.456,29.722,85.3,27.7,85.121Z"/><path class="e447974a-8a09-46ab-95ab-56795ee53b2a" d="M15.56,59.48a32.62,32.62,0,0,1,3.972,2.854,43.583,43.583,0,0,0,4.29,3.088,12.206,12.206,0,0,0,2.617,1.18c.428.143.852.3,1.279.446a.841.841,0,0,1,.638.8.809.809,0,0,1-.549.821,7.078,7.078,0,0,1-.913.335,15.15,15.15,0,0,0-5.022,2.654c-1.526,1.163-3.03,2.353-4.561,3.509a12.23,12.23,0,0,1-3.826,2.046,10.592,10.592,0,0,1-7.138-.13A9.535,9.535,0,0,1,.491,70.818a9.418,9.418,0,0,1,1.18-8.376A9.556,9.556,0,0,1,9.21,58.031,10.564,10.564,0,0,1,15.56,59.48Zm-3.747,5.1a3.8,3.8,0,0,0-5.246,1.413,3.818,3.818,0,1,0,5.246-1.413Z"/><path class="a16073aa-6f1d-4ad8-84f4-ec283f5183b5" d="M32,80.159c.935.095,3.076.224,3.059.309a53.536,53.536,0,0,1-1.592,5.45c-2.764-.462-3.745-.615-5.768-.8.006-.019,1.164-3.337,1.482-4.957A20.386,20.386,0,0,1,32,80.159Z"/><path class="a71dadd0-24e1-4b44-81c3-92483cbfb413" d="M61.1,108.578c-.013-.015-.106-.133-.119-.148-7.8-8.922-17.393-14.794-29.11-16.969a49.988,49.988,0,0,0-23.223,1.26,58.08,58.08,0,0,0,6.471,11.222c.132-.116.238-.2.336-.3A48.3,48.3,0,0,0,23.5,93.657a.675.675,0,0,1,.708-.372c1.807.078,3.606.238,5.4.494.123.018.245.047.431.084a55.836,55.836,0,0,1-16.359,18.79A65.36,65.36,0,0,1,.385,89.6a55.745,55.745,0,0,1,16.733-4.4,54.345,54.345,0,0,1,28.816,4.7,56.063,56.063,0,0,1,18.611,13.935c.012.013.117.129.128.143C62.891,106.144,62.268,106.917,61.1,108.578Z"/><path class="a71dadd0-24e1-4b44-81c3-92483cbfb413" d="M32.824,106.27a32.539,32.539,0,0,1,4.457-2.013,43.6,43.6,0,0,0,4.82-2.171,12.289,12.289,0,0,0,2.331-1.676c.337-.3.684-.589,1.025-.885a.844.844,0,0,1,1.014-.152.811.811,0,0,1,.436.886,7.071,7.071,0,0,1-.167.959,15.146,15.146,0,0,0-.212,5.676c.245,1.9.523,3.8.759,5.7a12.224,12.224,0,0,1-.142,4.336,10.59,10.59,0,0,1-3.681,6.117,9.532,9.532,0,0,1-8.356,1.938,9.415,9.415,0,0,1-6.664-5.21,9.558,9.558,0,0,1-.051-8.734A10.571,10.571,0,0,1,32.824,106.27Zm2.544,5.8a3.8,3.8,0,0,0-1.4,5.25,3.818,3.818,0,1,0,1.4-5.25Z"/><path class="a08288ce-bc19-4f5e-ad18-9201ef03e489" d="M58.953,102.372c.549-.762,1.732-2.551,1.8-2.5a53.2,53.2,0,0,1,3.924,4.1c-1.782,2.163-2.405,2.936-3.574,4.6-.013-.015-2.308-2.676-3.552-3.762A20.326,20.326,0,0,1,58.953,102.372Z"/><path class="b6924788-cd68-4c9f-9e2a-58ee636292b2" d="M98.114,91.381l-.188.03c-11.629,2.3-21.509,7.665-29.251,16.724a49.989,49.989,0,0,0-10.52,20.742,58.025,58.025,0,0,0,12.954.007c-.034-.172-.056-.306-.088-.438a48.3,48.3,0,0,0-4.628-11.966.672.672,0,0,1,.032-.8c.971-1.527,2.008-3,3.125-4.426.077-.1.164-.189.288-.332a55.832,55.832,0,0,1,8.094,23.562,65.381,65.381,0,0,1-26.609-.012,55.728,55.728,0,0,1,4.557-16.691A54.335,54.335,0,0,1,74.358,95.177a56.088,56.088,0,0,1,21.373-9.151l.188-.039C96.9,88.612,97.26,89.538,98.114,91.381Z"/><path class="b6924788-cd68-4c9f-9e2a-58ee636292b2" d="M81.977,114.714a32.563,32.563,0,0,1,.485-4.867,43.551,43.551,0,0,0,.53-5.259,12.279,12.279,0,0,0-.286-2.857c-.091-.442-.167-.887-.254-1.33a.843.843,0,0,1,.376-.954.81.81,0,0,1,.985.066,6.947,6.947,0,0,1,.747.623,15.148,15.148,0,0,0,4.81,3.022c1.769.739,3.552,1.448,5.319,2.195a12.249,12.249,0,0,1,3.684,2.29,10.591,10.591,0,0,1,3.457,6.247,9.539,9.539,0,0,1-2.5,8.206,9.423,9.423,0,0,1-7.845,3.166,9.555,9.555,0,0,1-7.589-4.323A10.575,10.575,0,0,1,81.977,114.714Zm6.291.694a3.8,3.8,0,0,0,3.847,3.838,3.819,3.819,0,1,0-3.847-3.838Z"/><path class="e637cb17-f3ef-4ad8-814c-751705094ccc" d="M91.666,90.137c-.386-.857-1.344-2.776-1.263-2.8a53.938,53.938,0,0,1,5.516-1.346c.982,2.625,1.341,3.551,2.2,5.394-.02,0-3.473.661-5.035,1.2A20.281,20.281,0,0,1,91.666,90.137Z"/><path class="a0bec47e-d7a7-414c-b823-6f86d6959d55" d="M101.728,50.727l-.069.178c-3.825,11.219-4.115,22.459-.141,33.694a49.989,49.989,0,0,0,12.7,19.481A57.988,57.988,0,0,0,120.7,92.865c-.166-.056-.293-.1-.423-.143A48.281,48.281,0,0,0,107.6,90.748a.676.676,0,0,1-.676-.427c-.836-1.6-1.6-3.242-2.27-4.92-.046-.116-.082-.236-.143-.415a55.835,55.835,0,0,1,24.452,4.771A65.353,65.353,0,0,1,115.652,112.8,55.718,55.718,0,0,1,103.475,100.5,54.349,54.349,0,0,1,93.137,73.2,56.09,56.09,0,0,1,95.9,50.113c.006-.017.054-.165.061-.182C98.723,50.393,99.705,50.545,101.728,50.727Z"/><path class="a0bec47e-d7a7-414c-b823-6f86d6959d55" d="M113.866,76.368a32.509,32.509,0,0,1-3.972-2.853,43.346,43.346,0,0,0-4.29-3.088,12.139,12.139,0,0,0-2.617-1.181c-.428-.143-.851-.3-1.278-.446a.843.843,0,0,1-.639-.8.811.811,0,0,1,.55-.821,7.073,7.073,0,0,1,.913-.334,15.171,15.171,0,0,0,5.022-2.655c1.525-1.163,3.03-2.353,4.56-3.509a12.272,12.272,0,0,1,3.826-2.046,10.6,10.6,0,0,1,7.139.13,9.539,9.539,0,0,1,5.856,6.268,9.421,9.421,0,0,1-1.18,8.376,9.556,9.556,0,0,1-7.539,4.411A10.574,10.574,0,0,1,113.866,76.368Zm3.747-5.1a3.8,3.8,0,0,0,5.247-1.412,3.818,3.818,0,1,0-5.247,1.412Z"/><path class="a761b90a-24e3-4fc3-a7ed-6d2520c797a5" d="M97.427,55.689c-.936-.095-3.076-.224-3.06-.308a53.362,53.362,0,0,1,1.593-5.45c2.763.462,3.745.614,5.768.8-.007.019-1.164,3.338-1.482,4.958A20.421,20.421,0,0,1,97.427,55.689Z"/><path class="b4336c29-0e4b-4499-b2dc-9850f0bb9a50" d="M68.36,27.3l.152.186c7.8,8.922,17.361,14.768,29.077,16.944a49.988,49.988,0,0,0,23.223-1.261,58.006,58.006,0,0,0-6.471-11.222c-.132.116-.237.2-.335.295a48.335,48.335,0,0,0-8.049,9.991.673.673,0,0,1-.708.372,54.145,54.145,0,0,1-5.395-.494c-.124-.017-.245-.047-.431-.083a55.836,55.836,0,0,1,16.358-18.791,65.358,65.358,0,0,1,13.294,23.051,55.714,55.714,0,0,1-16.733,4.4,54.35,54.35,0,0,1-28.816-4.7A56.106,56.106,0,0,1,64.914,32.049c-.011-.014-.116-.13-.128-.144C66.568,29.743,67.191,28.957,68.36,27.3Z"/><path class="b4336c29-0e4b-4499-b2dc-9850f0bb9a50" d="M96.6,29.579a32.475,32.475,0,0,1-4.457,2.012,43.49,43.49,0,0,0-4.819,2.172A12.213,12.213,0,0,0,85,35.439c-.338.3-.685.588-1.025.884a.842.842,0,0,1-1.014.152.811.811,0,0,1-.436-.886,6.905,6.905,0,0,1,.167-.958,15.192,15.192,0,0,0,.212-5.677c-.245-1.9-.523-3.8-.759-5.7a12.248,12.248,0,0,1,.141-4.336A10.6,10.6,0,0,1,85.963,12.8a9.538,9.538,0,0,1,8.356-1.938,9.422,9.422,0,0,1,6.664,5.21,9.555,9.555,0,0,1,.05,8.734A10.573,10.573,0,0,1,96.6,29.579Zm-2.544-5.8a3.8,3.8,0,0,0,1.4-5.25,3.818,3.818,0,1,0-1.4,5.25Z"/><path class="f2fd9ff3-ab2d-4154-ae22-b7fd62ca7690" d="M70.474,33.476c-.55.763-1.732,2.552-1.8,2.495a47.257,47.257,0,0,1-3.891-4.066c1.782-2.162,2.405-2.948,3.574-4.609a50.053,50.053,0,0,0,3.52,3.736A20.387,20.387,0,0,1,70.474,33.476Z"/><path class="a0bec47e-d7a7-414c-b823-6f86d6959d55" d="M269.926,117.277H244.45V58.546l-15.085,50.015H202.212L187.127,58.546v58.731H161.651V23.414h35.332l18.839,56.453,18.772-56.453h35.332Z"/><path class="e447974a-8a09-46ab-95ab-56795ee53b2a" d="M284.574,21.638a13.679,13.679,0,0,1,23.432,9.755,13.679,13.679,0,1,1-27.355,0A13.24,13.24,0,0,1,284.574,21.638Zm21.755,95.639H282.462V50.835h23.867Z"/><path class="b4336c29-0e4b-4499-b2dc-9850f0bb9a50" d="M345.885,117.277H322.018V20.733h23.867Z"/><path class="b6924788-cd68-4c9f-9e2a-58ee636292b2" d="M359.662,21.638A13.679,13.679,0,0,1,383.1,31.393a13.679,13.679,0,1,1-27.355,0A13.243,13.243,0,0,1,359.662,21.638Zm21.756,95.639H357.551V50.835h23.867Z"/><path class="a3f3aa82-b778-4ef6-be9f-ab674ccee6c7" d="M424.6,49.025q15.018,0,24.5,9.722t9.486,25.276a48.525,48.525,0,0,1-.47,7.106H414.739q2.414,8.047,11.934,8.046a17.618,17.618,0,0,0,12.537-5.364l16.359,13.678a34.289,34.289,0,0,1-12.671,8.447,46.416,46.416,0,0,1-17.365,3.084q-15.956,0-25.712-9.486t-9.754-24.908q0-15.822,9.587-25.712T424.6,49.025Zm.134,20.047q-7.576,0-9.923,7.643h19.979Q432.3,69.073,424.729,69.072Z"/><path class="a71dadd0-24e1-4b44-81c3-92483cbfb413" d="M532.066,88.716q0,14.883-8.984,22.594t-23.6,7.71q-14.618,0-23.6-7.743T466.9,88.649V50.835h23.867v35.8q0,4.963,2.346,7.576a9.065,9.065,0,0,0,12.739,0Q508.2,91.6,508.2,86.637v-35.8h23.868Z"/></g></g></g></svg>