<svg xmlns="http://www.w3.org/2000/svg" xmlns:xlink="http://www.w3.org/1999/xlink" viewBox="0 0 129.427 135.848"><defs><style>.ac1f1f01-cd27-4f73-8049-5be36319e0d8{isolation:isolate;}.f0748adb-7a51-427e-b5c5-8f0f0b5b9693{fill:#ed2024;}.b7d0bc5b-1ab2-46e9-bb03-674f3bde0788{fill:#49ace1;}.a3035859-7b9a-45e7-81dd-f4807ffec1b6,.a34c4e3e-3971-4b7c-801c-d86ab860f6b5,.e08e887d-d6d9-42a9-bae8-7b64cad8ee2e,.e44246f4-eab3-4ce5-a141-9046f1f12d68,.f64e8f03-566c-4cc6-b48c-56c0e53ef655,.fc11ac56-568c-405d-b353-43cd40c4aa19{opacity:0.45;mix-blend-mode:multiply;}.a3035859-7b9a-45e7-81dd-f4807ffec1b6{fill:url(#a2de660f-2125-4069-ac85-30553fda51cb);}.f09199cc-9fc3-4a0f-be7d-5697fa9ef691{fill:#fcb21c;}.e08e887d-d6d9-42a9-bae8-7b64cad8ee2e{fill:url(#aad39859-7812-4999-9c01-db30e5aa26b1);}.be5a52b4-fdbb-49cc-a51a-3372725ed227{fill:#5cba47;}.fc11ac56-568c-405d-b353-43cd40c4aa19{fill:url(#b046cce3-73e4-41a5-8900-2574afa44ffa);}.a5441f44-2dfe-4633-bf27-17bb7439dd78{fill:#f37021;}.e44246f4-eab3-4ce5-a141-9046f1f12d68{fill:url(#b0c19498-7fcf-4d35-b6c3-ac058f09ece0);}.e444e276-429e-4e76-a6d4-2a258521e53e{fill:#427cc0;}.a34c4e3e-3971-4b7c-801c-d86ab860f6b5{fill:url(#a3bf26fb-8c41-45dd-9d83-ae80901ba3bb);}.e4254aee-27c2-420c-aeac-45e2c6dfef78{fill:#ee3a78;}.f64e8f03-566c-4cc6-b48c-56c0e53ef655{fill:url(#bd5b1398-012b-44e8-aebc-fc493da57a47);}</style><linearGradient id="a2de660f-2125-4069-ac85-30553fda51cb" x1="32.716" y1="47.907" x2="37.411" y2="45.197" gradientUnits="userSpaceOnUse"><stop offset="0" stop-color="#2a2728"/><stop offset="0.47" stop-color="#272424" stop-opacity="0.42"/><stop offset="0.896" stop-color="#242121" stop-opacity="0"/></linearGradient><linearGradient id="aad39859-7812-4999-9c01-db30e5aa26b1" x1="1853.779" y1="-2937.694" x2="1858.474" y2="-2940.404" gradientTransform="matrix(0.5, -0.866, 0.866, 0.5, 1648.607, 3159.893)" xlink:href="#a2de660f-2125-4069-ac85-30553fda51cb"/><linearGradient id="b046cce3-73e4-41a5-8900-2574afa44ffa" x1="5349.917" y1="-2853.407" x2="5354.612" y2="-2856.118" gradientTransform="translate(5209.458 3312.104) rotate(-120)" xlink:href="#a2de660f-2125-4069-ac85-30553fda51cb"/><linearGradient id="b0c19498-7fcf-4d35-b6c3-ac058f09ece0" x1="7024.992" y1="216.481" x2="7029.686" y2="213.77" gradientTransform="translate(7121.702 304.422) rotate(180)" xlink:href="#a2de660f-2125-4069-ac85-30553fda51cb"/><linearGradient id="a3bf26fb-8c41-45dd-9d83-ae80901ba3bb" x1="5203.928" y1="3202.081" x2="5208.623" y2="3199.371" gradientTransform="matrix(-0.5, 0.866, -0.866, -0.5, 5473.095, -2855.471)" xlink:href="#a2de660f-2125-4069-ac85-30553fda51cb"/><linearGradient id="bd5b1398-012b-44e8-aebc-fc493da57a47" x1="1707.831" y1="3117.775" x2="1712.487" y2="3115.086" gradientTransform="translate(1912.244 -3007.682) rotate(60)" xlink:href="#a2de660f-2125-4069-ac85-30553fda51cb"/></defs><g class="ac1f1f01-cd27-4f73-8049-5be36319e0d8"><g id="f6f6b139-b13a-4b1c-ad7c-2a46e0dd71d6" data-name="Layer 2"><g id="f4342d0e-b7e4-4b35-9dae-94e711b682b2" data-name="Layer 1"><path class="f0748adb-7a51-427e-b5c5-8f0f0b5b9693" d="M82.665,61.139a20.553,20.553,0,0,1-3.47,11.125c-1.426,2.193-3.049,4.238-4.679,6.278-1.736,2.174-3.391,4.406-4.906,6.74a24.467,24.467,0,0,0-2.6,5.448q-.417,1.221-.864,2.432a1.5,1.5,0,0,1-1.623,1.086,1.322,1.322,0,0,1-1.146-.684,4.781,4.781,0,0,1-.429-.916c-.372-1.05-.711-2.112-1.088-3.159a22.473,22.473,0,0,0-2.4-4.607c-1.542-2.369-3.3-4.576-5.036-6.805-1.359-1.75-2.763-3.466-3.976-5.325A20.825,20.825,0,0,1,46.8,59.332a16.905,16.905,0,0,1,1.482-5.879A17.106,17.106,0,0,1,51.562,48.5a17.775,17.775,0,0,1,7.156-4.681,18.061,18.061,0,0,1,5.423-1.032,18.976,18.976,0,0,1,3.832.3,17.566,17.566,0,0,1,8.441,4.054,17.817,17.817,0,0,1,4.916,6.848,17.072,17.072,0,0,1,1.186,4.744C82.6,59.533,82.617,60.338,82.665,61.139ZM64.683,67.572a6.874,6.874,0,1,0-6.89-6.905A6.814,6.814,0,0,0,64.683,67.572Z"/><path class="b7d0bc5b-1ab2-46e9-bb03-674f3bde0788" d="M31.313,44.467l.188-.029c11.629-2.3,21.508-7.666,29.25-16.725A49.979,49.979,0,0,0,71.272,6.971a58.085,58.085,0,0,0-12.954-.007c.034.172.055.307.087.438a48.326,48.326,0,0,0,4.628,11.966.674.674,0,0,1-.031.8q-1.457,2.289-3.126,4.426c-.077.1-.163.188-.288.331A55.826,55.826,0,0,1,51.5,1.362,65.353,65.353,0,0,1,78.1,1.375a55.734,55.734,0,0,1-4.556,16.691A54.34,54.34,0,0,1,55.069,40.671,56.076,56.076,0,0,1,33.7,49.822l-.188.039C32.525,47.236,32.167,46.31,31.313,44.467Z"/><path class="b7d0bc5b-1ab2-46e9-bb03-674f3bde0788" d="M47.45,21.135A32.545,32.545,0,0,1,46.964,26a43.59,43.59,0,0,0-.529,5.259,12.22,12.22,0,0,0,.286,2.857c.09.442.167.887.253,1.33a.841.841,0,0,1-.375.954.811.811,0,0,1-.986-.065,7.167,7.167,0,0,1-.746-.624,15.165,15.165,0,0,0-4.81-3.022c-1.77-.739-3.553-1.447-5.319-2.195a12.254,12.254,0,0,1-3.685-2.29A10.6,10.6,0,0,1,27.6,21.958a9.534,9.534,0,0,1,2.5-8.2,9.416,9.416,0,0,1,7.844-3.166,9.556,9.556,0,0,1,7.59,4.323A10.573,10.573,0,0,1,47.45,21.135Zm-6.292-.7A3.8,3.8,0,0,0,37.312,16.6a3.818,3.818,0,1,0,3.846,3.837Z"/><path class="a3035859-7b9a-45e7-81dd-f4807ffec1b6" d="M37.761,45.711c.385.858,1.344,2.776,1.262,2.8a53.528,53.528,0,0,1-5.516,1.346c-.982-2.625-1.34-3.551-2.194-5.394.02,0,3.472-.661,5.034-1.2A20.45,20.45,0,0,1,37.761,45.711Z"/><path class="f09199cc-9fc3-4a0f-be7d-5697fa9ef691" d="M27.7,85.121c.006-.019.062-.158.068-.177,3.825-11.219,4.116-22.46.141-33.694a49.983,49.983,0,0,0-12.7-19.482A58.017,58.017,0,0,0,8.723,42.983c.166.057.293.105.423.143A48.322,48.322,0,0,0,21.822,45.1a.673.673,0,0,1,.676.427c.837,1.6,1.6,3.241,2.271,4.92.046.115.081.235.143.415A55.838,55.838,0,0,1,.459,46.091,65.383,65.383,0,0,1,13.775,23.054,55.708,55.708,0,0,1,25.951,35.345,54.334,54.334,0,0,1,36.289,62.65a56.061,56.061,0,0,1-2.762,23.086c-.006.016-.054.165-.06.182C30.7,85.456,29.722,85.3,27.7,85.121Z"/><path class="f09199cc-9fc3-4a0f-be7d-5697fa9ef691" d="M15.56,59.48a32.62,32.62,0,0,1,3.972,2.854,43.583,43.583,0,0,0,4.29,3.088,12.206,12.206,0,0,0,2.617,1.18c.428.143.852.3,1.279.446a.841.841,0,0,1,.638.8.809.809,0,0,1-.549.821,7.078,7.078,0,0,1-.913.335,15.15,15.15,0,0,0-5.022,2.654c-1.526,1.163-3.03,2.353-4.561,3.509a12.23,12.23,0,0,1-3.826,2.046,10.592,10.592,0,0,1-7.138-.13A9.535,9.535,0,0,1,.491,70.818a9.418,9.418,0,0,1,1.18-8.376A9.556,9.556,0,0,1,9.21,58.031,10.564,10.564,0,0,1,15.56,59.48Zm-3.747,5.1a3.8,3.8,0,0,0-5.246,1.413,3.818,3.818,0,1,0,5.246-1.413Z"/><path class="e08e887d-d6d9-42a9-bae8-7b64cad8ee2e" d="M32,80.159c.935.095,3.076.224,3.059.309a53.536,53.536,0,0,1-1.592,5.45c-2.764-.462-3.745-.615-5.768-.8.006-.019,1.164-3.337,1.482-4.957A20.386,20.386,0,0,1,32,80.159Z"/><path class="be5a52b4-fdbb-49cc-a51a-3372725ed227" d="M61.1,108.578c-.013-.015-.106-.133-.119-.148-7.8-8.922-17.393-14.794-29.11-16.969a49.988,49.988,0,0,0-23.223,1.26,58.08,58.08,0,0,0,6.471,11.222c.132-.116.238-.2.336-.3A48.3,48.3,0,0,0,23.5,93.657a.675.675,0,0,1,.708-.372c1.807.078,3.606.238,5.4.494.123.018.245.047.431.084a55.836,55.836,0,0,1-16.359,18.79A65.36,65.36,0,0,1,.385,89.6a55.745,55.745,0,0,1,16.733-4.4,54.345,54.345,0,0,1,28.816,4.7,56.063,56.063,0,0,1,18.611,13.935c.012.013.117.129.128.143C62.891,106.144,62.268,106.917,61.1,108.578Z"/><path class="be5a52b4-fdbb-49cc-a51a-3372725ed227" d="M32.824,106.27a32.539,32.539,0,0,1,4.457-2.013,43.6,43.6,0,0,0,4.82-2.171,12.289,12.289,0,0,0,2.331-1.676c.337-.3.684-.589,1.025-.885a.844.844,0,0,1,1.014-.152.811.811,0,0,1,.436.886,7.071,7.071,0,0,1-.167.959,15.146,15.146,0,0,0-.212,5.676c.245,1.9.523,3.8.759,5.7a12.224,12.224,0,0,1-.142,4.336,10.59,10.59,0,0,1-3.681,6.117,9.532,9.532,0,0,1-8.356,1.938,9.415,9.415,0,0,1-6.664-5.21,9.558,9.558,0,0,1-.051-8.734A10.571,10.571,0,0,1,32.824,106.27Zm2.544,5.8a3.8,3.8,0,0,0-1.4,5.25,3.818,3.818,0,1,0,1.4-5.25Z"/><path class="fc11ac56-568c-405d-b353-43cd40c4aa19" d="M58.953,102.372c.549-.762,1.732-2.551,1.8-2.5a53.2,53.2,0,0,1,3.924,4.1c-1.782,2.163-2.405,2.936-3.574,4.6-.013-.015-2.308-2.676-3.552-3.762A20.326,20.326,0,0,1,58.953,102.372Z"/><path class="a5441f44-2dfe-4633-bf27-17bb7439dd78" d="M98.114,91.381l-.188.03c-11.629,2.3-21.509,7.665-29.251,16.724a49.989,49.989,0,0,0-10.52,20.742,58.025,58.025,0,0,0,12.954.007c-.034-.172-.056-.306-.088-.438a48.3,48.3,0,0,0-4.628-11.966.672.672,0,0,1,.032-.8c.971-1.527,2.008-3,3.125-4.426.077-.1.164-.189.288-.332a55.832,55.832,0,0,1,8.094,23.562,65.381,65.381,0,0,1-26.609-.012,55.728,55.728,0,0,1,4.557-16.691A54.335,54.335,0,0,1,74.358,95.177a56.088,56.088,0,0,1,21.373-9.151l.188-.039C96.9,88.612,97.26,89.538,98.114,91.381Z"/><path class="a5441f44-2dfe-4633-bf27-17bb7439dd78" d="M81.977,114.714a32.563,32.563,0,0,1,.485-4.867,43.551,43.551,0,0,0,.53-5.259,12.279,12.279,0,0,0-.286-2.857c-.091-.442-.167-.887-.254-1.33a.843.843,0,0,1,.376-.954.81.81,0,0,1,.985.066,6.947,6.947,0,0,1,.747.623,15.148,15.148,0,0,0,4.81,3.022c1.769.739,3.552,1.448,5.319,2.195a12.249,12.249,0,0,1,3.684,2.29,10.591,10.591,0,0,1,3.457,6.247,9.539,9.539,0,0,1-2.5,8.206,9.423,9.423,0,0,1-7.845,3.166,9.555,9.555,0,0,1-7.589-4.323A10.575,10.575,0,0,1,81.977,114.714Zm6.291.694a3.8,3.8,0,0,0,3.847,3.838,3.819,3.819,0,1,0-3.847-3.838Z"/><path class="e44246f4-eab3-4ce5-a141-9046f1f12d68" d="M91.666,90.137c-.386-.857-1.344-2.776-1.263-2.8a53.938,53.938,0,0,1,5.516-1.346c.982,2.625,1.341,3.551,2.2,5.394-.02,0-3.473.661-5.035,1.2A20.281,20.281,0,0,1,91.666,90.137Z"/><path class="e444e276-429e-4e76-a6d4-2a258521e53e" d="M101.728,50.727l-.069.178c-3.825,11.219-4.115,22.459-.141,33.694a49.989,49.989,0,0,0,12.7,19.481A57.988,57.988,0,0,0,120.7,92.865c-.166-.056-.293-.1-.423-.143A48.281,48.281,0,0,0,107.6,90.748a.676.676,0,0,1-.676-.427c-.836-1.6-1.6-3.242-2.27-4.92-.046-.116-.082-.236-.143-.415a55.835,55.835,0,0,1,24.452,4.771A65.353,65.353,0,0,1,115.652,112.8,55.718,55.718,0,0,1,103.475,100.5,54.349,54.349,0,0,1,93.137,73.2,56.09,56.09,0,0,1,95.9,50.113c.006-.017.054-.165.061-.182C98.723,50.393,99.705,50.545,101.728,50.727Z"/><path class="e444e276-429e-4e76-a6d4-2a258521e53e" d="M113.866,76.368a32.509,32.509,0,0,1-3.972-2.853,43.346,43.346,0,0,0-4.29-3.088,12.139,12.139,0,0,0-2.617-1.181c-.428-.143-.851-.3-1.278-.446a.843.843,0,0,1-.639-.8.811.811,0,0,1,.55-.821,7.073,7.073,0,0,1,.913-.334,15.171,15.171,0,0,0,5.022-2.655c1.525-1.163,3.03-2.353,4.56-3.509a12.272,12.272,0,0,1,3.826-2.046,10.6,10.6,0,0,1,7.139.13,9.539,9.539,0,0,1,5.856,6.268,9.421,9.421,0,0,1-1.18,8.376,9.556,9.556,0,0,1-7.539,4.411A10.574,10.574,0,0,1,113.866,76.368Zm3.747-5.1a3.8,3.8,0,0,0,5.247-1.412,3.818,3.818,0,1,0-5.247,1.412Z"/><path class="a34c4e3e-3971-4b7c-801c-d86ab860f6b5" d="M97.427,55.689c-.936-.095-3.076-.224-3.06-.308a53.362,53.362,0,0,1,1.593-5.45c2.763.462,3.745.614,5.768.8-.007.019-1.164,3.338-1.482,4.958A20.421,20.421,0,0,1,97.427,55.689Z"/><path class="e4254aee-27c2-420c-aeac-45e2c6dfef78" d="M68.36,27.3l.152.186c7.8,8.922,17.361,14.768,29.077,16.944a49.988,49.988,0,0,0,23.223-1.261,58.006,58.006,0,0,0-6.471-11.222c-.132.116-.237.2-.335.295a48.335,48.335,0,0,0-8.049,9.991.673.673,0,0,1-.708.372,54.145,54.145,0,0,1-5.395-.494c-.124-.017-.245-.047-.431-.083a55.836,55.836,0,0,1,16.358-18.791,65.358,65.358,0,0,1,13.294,23.051,55.714,55.714,0,0,1-16.733,4.4,54.35,54.35,0,0,1-28.816-4.7A56.106,56.106,0,0,1,64.914,32.049c-.011-.014-.116-.13-.128-.144C66.568,29.743,67.191,28.957,68.36,27.3Z"/><path class="e4254aee-27c2-420c-aeac-45e2c6dfef78" d="M96.6,29.579a32.475,32.475,0,0,1-4.457,2.012,43.49,43.49,0,0,0-4.819,2.172A12.213,12.213,0,0,0,85,35.439c-.338.3-.685.588-1.025.884a.842.842,0,0,1-1.014.152.811.811,0,0,1-.436-.886,6.905,6.905,0,0,1,.167-.958,15.192,15.192,0,0,0,.212-5.677c-.245-1.9-.523-3.8-.759-5.7a12.248,12.248,0,0,1,.141-4.336A10.6,10.6,0,0,1,85.963,12.8a9.538,9.538,0,0,1,8.356-1.938,9.422,9.422,0,0,1,6.664,5.21,9.555,9.555,0,0,1,.05,8.734A10.573,10.573,0,0,1,96.6,29.579Zm-2.544-5.8a3.8,3.8,0,0,0,1.4-5.25,3.818,3.818,0,1,0-1.4,5.25Z"/><path class="f64e8f03-566c-4cc6-b48c-56c0e53ef655" d="M70.474,33.476c-.55.763-1.732,2.552-1.8,2.495a47.257,47.257,0,0,1-3.891-4.066c1.782-2.162,2.405-2.948,3.574-4.609a50.053,50.053,0,0,0,3.52,3.736A20.387,20.387,0,0,1,70.474,33.476Z"/></g></g></g></svg>