<svg xmlns="http://www.w3.org/2000/svg" viewBox="0 0 370.42 101.3"><defs><style>.cls-1{fill:#427cc0;}.cls-2{fill:#fcb21c;}.cls-3{fill:#ee3a78;}.cls-4{fill:#f37021;}.cls-5{fill:#49ace1;}.cls-6{fill:#5cba47;}</style></defs><g id="Layer_2" data-name="Layer 2"><g id="Layer_1-2" data-name="Layer 1"><path class="cls-1" d="M108.28,99.56H82.8V40.83l-15.09,50H40.56l-15.08-50V99.56H0V5.7H35.33L54.17,62.15,72.94,5.7h35.34Z"/><path class="cls-2" d="M122.92,3.92a13.69,13.69,0,0,1,23.44,9.76,13.68,13.68,0,1,1-27.36,0A13.28,13.28,0,0,1,122.92,3.92Zm21.76,95.64H120.81V33.12h23.87Z"/><path class="cls-3" d="M184.23,99.56H160.37V3h23.86Z"/><path class="cls-4" d="M198,3.92a13.68,13.68,0,0,1,23.43,9.76,13.68,13.68,0,1,1-27.35,0A13.28,13.28,0,0,1,198,3.92Zm21.76,95.64H195.9V33.12h23.87Z"/><path class="cls-5" d="M262.94,31.31q15,0,24.51,9.72t9.49,25.28a48.94,48.94,0,0,1-.47,7.1H253.09q2.41,8.06,11.93,8a17.65,17.65,0,0,0,12.54-5.36l16.36,13.67a34.3,34.3,0,0,1-12.67,8.45,46.35,46.35,0,0,1-17.37,3.08q-15.94,0-25.71-9.48t-9.75-24.91q0-15.82,9.58-25.71T262.94,31.31Zm.14,20.05q-7.58,0-9.92,7.64h20Q270.66,51.35,263.08,51.36Z"/><path class="cls-6" d="M370.42,71q0,14.88-9,22.59t-23.6,7.71q-14.61,0-23.6-7.74t-9-22.63V33.12h23.87v35.8c0,3.31.78,5.83,2.34,7.58a9.08,9.08,0,0,0,12.74,0c1.57-1.75,2.35-4.27,2.35-7.58V33.12h23.87Z"/></g></g></svg>