<svg xmlns="http://www.w3.org/2000/svg" viewBox="0 0 672.679 963.918"><defs><style>.b2512e12-0ff7-4833-b79a-ed535b093a23{fill:#ed2024;}</style></defs><g id="a7bc1adf-5f3a-471c-b616-9bf6420a7c84" data-name="Layer 2"><g id="ec877e50-b825-41ca-8873-44ec9205f0eb" data-name="Layer 1"><path id="ec889574-06c0-4faa-9b9b-8917eaf7a18f" data-name="red" class="b2512e12-0ff7-4833-b79a-ed535b093a23" d="M672.679,343.743A384.858,384.858,0,0,1,607.7,552.061c-26.7,41.065-57.093,79.358-87.616,117.557-32.507,40.709-63.5,82.5-91.866,126.208a458.143,458.143,0,0,0-48.685,102.016q-7.809,22.863-16.179,45.539a28.088,28.088,0,0,1-30.391,20.336,24.753,24.753,0,0,1-21.459-12.808,89.465,89.465,0,0,1-8.033-17.152C296.507,914.1,290.159,894.209,283.1,874.6a420.816,420.816,0,0,0-44.941-86.268c-28.874-44.36-61.793-85.686-94.3-127.425-25.448-32.769-51.738-64.9-74.452-99.712A389.952,389.952,0,0,1,1.1,309.906,316.554,316.554,0,0,1,28.848,199.82a320.308,320.308,0,0,1,61.419-92.746,332.849,332.849,0,0,1,134-87.653A338.2,338.2,0,0,1,325.812.1a355.348,355.348,0,0,1,71.755,5.617,328.93,328.93,0,0,1,158.06,75.912A333.623,333.623,0,0,1,647.68,209.857a319.659,319.659,0,0,1,22.209,88.833C671.461,313.67,671.78,328.744,672.679,343.743ZM335.961,464.2a127.577,127.577,0,1,0-3.147,0Q334.388,464.22,335.961,464.2Z"/></g></g></svg>