<svg xmlns="http://www.w3.org/2000/svg" viewBox="0 0 1159.282 1661.198"><defs><style>.a96962bb-6547-41f0-adae-a5752ce9b69a{fill:#939598;}</style></defs><g id="fce9984c-8daf-48c2-8a8e-05192410beb8" data-name="Layer 2"><g id="b2d57321-6513-410f-8ec7-ba6273891d5d" data-name="Layer 1"><path class="a96962bb-6547-41f0-adae-a5752ce9b69a" d="M1159.282,592.4A663.268,663.268,0,0,1,1047.3,951.412c-46.018,70.769-98.394,136.763-150.995,202.6-56.022,70.157-109.43,142.185-158.32,217.5a789.6,789.6,0,0,0-83.9,175.811q-13.457,39.4-27.882,78.483a48.406,48.406,0,0,1-52.375,35.046,42.666,42.666,0,0,1-36.983-22.073A154.343,154.343,0,0,1,523,1609.219c-12-33.885-22.944-68.156-35.11-101.944a725.268,725.268,0,0,0-77.45-148.671c-49.762-76.45-106.494-147.671-162.516-219.6-43.856-56.473-89.164-111.85-128.308-171.841A672.037,672.037,0,0,1,1.891,534.086a545.547,545.547,0,0,1,47.825-189.72A552.042,552.042,0,0,1,155.564,184.529,573.624,573.624,0,0,1,386.494,33.47a582.812,582.812,0,0,1,175-33.3A612.306,612.306,0,0,1,685.16,9.848a566.872,566.872,0,0,1,272.4,130.825A574.965,574.965,0,0,1,1116.2,361.664a550.905,550.905,0,0,1,38.273,153.092C1157.184,540.573,1157.733,566.551,1159.282,592.4ZM578.989,800c122.512-.286,221.6-99.834,221.31-222.347s-99.835-221.6-222.347-221.31c-121.92.285-220.758,98.909-221.309,220.828-1.629,121.432,95.49,221.194,216.923,222.823Q576.278,800.028,578.989,800Z"/></g></g></svg>